# AST/ASF file generated using VICON BodyLanguage
# -----------------------------------------------
:version 1.10
:name VICON
:units
  mass 1.0
  length 0.45
  angle deg
:documentation
   .ast/.asf automatically generated from VICON data using
   VICON BodyBuilder and BodyLanguage model FoxedUp or BRILLIANT.MOD
:root
   order TX TY TZ RX RY RZ
   axis XYZ
   position 0 0 0  
   orientation 0 0 0 
:bonedata
  begin
     id 1 
     name lhipjoint
     direction 0.578396 -0.714046 0.394458 
     length 2.21935 
     axis 0 0 0  XYZ
  end
  begin
     id 2 
     name lfemur
     direction 0.34202 -0.939693 0  
     length 6.39105  
     axis 0 0 20  XYZ
    dof rx ry rz
    limits (-160.0 20.0)
           (-70.0 70.0)
           (-60.0 70.0)
  end
  begin
     id 3 
     name ltibia
     direction 0.34202 -0.939693 0   
     length 6.99037   
     axis 0 0 20   XYZ
    dof rx
    limits (-10.0 170.0)
  end
  begin
     id 4 
     name lfoot
     direction 0.0582372 -0.160005 0.985397   
     length 2.06111   
     axis -90 7.62852e-016 20   XYZ
    dof rx rz
    limits (-45.0 90.0)
           (-70.0 20.0)
  end
  begin
     id 5 
     name ltoes
     direction 1.53556e-011 -4.21875e-011 1   
     length 1.04074   
     axis -90 7.62852e-016 20   XYZ
    dof rx
    limits (-90.0 20.0)
  end
  begin
     id 6 
     name rhipjoint
     direction -0.558179 -0.726269 0.40121   
     length 2.182  
     axis 0 0 0  XYZ 
  end
  begin
     id 7 
     name rfemur
     direction -0.34202 -0.939693 0   
     length 6.51172   
     axis 0 0 -20   XYZ
    dof rx ry rz
    limits (-160.0 20.0)
           (-70.0 70.0)
           (-70.0 60.0)
  end
  begin
     id 8 
     name rtibia
     direction -0.34202 -0.939693 0   
     length 7.02607   
     axis 0 0 -20   XYZ
    dof rx
    limits (-10.0 170.0)
 end
 begin
     id 9 
     name rfoot
     direction -0.0788856 -0.216737 0.973038   
     length 1.96734  
     axis -90 -7.62852e-016 -20   XYZ
    dof rx rz
    limits (-45.0 90.0)
           (-20.0 70.0)
  end
  begin
     id 10 
     name rtoes
     direction -1.53567e-011 -4.21783e-011 1   
     length 0.990825   
     axis -90 -7.62852e-016 -20   XYZ
    dof rx
    limits (-90.0 20.0)
  end
  begin
     id 11 
     name lowerback
     direction 0.00668177 0.999323 -0.0361741   
     length 1.7655   
     axis 0 0 0   XYZ
    dof rx ry rz
    limits (-20.0 45.0)
           (-30.0 30.0)
           (-30.0 30.0)
  end
  begin
     id 12 
     name upperback
     direction -0.00222086 0.99851 0.0545167   
     length 1.74912   
     axis 0 0 0   XYZ
    dof rx ry rz
    limits (-20.0 45.0)
           (-30.0 30.0)
           (-30.0 30.0)
  end
  begin
     id 13 
     name thorax
     direction -0.00733971 0.997496 0.0703443   
     length 1.75715   
     axis 0 0 0   XYZ
    dof rx ry rz
    limits (-20.0 45.0)
           (-30.0 30.0)
           (-30.0 30.0)
  end
  begin
     id 14 
     name lowerneck
     direction 0.0279797 0.994795 0.0979765   
     length 1.46939   
     axis 0 0 0   XYZ
    dof rx ry rz
    limits (-20.0 45.0)
           (-30.0 30.0)
           (-30.0 30.0)
  end
  begin
     id 15 
     name upperneck
     direction 0.00339187 0.976776 -0.214238   
     length 1.48018   
     axis 0 0 0   XYZ
    dof rx ry rz
    limits (-20.0 45.0)
           (-30.0 30.0)
           (-30.0 30.0)
  end
  begin
     id 16
     name head
     direction -0.00263506 0.996603 -0.0823096  
     length 1.4976  
     axis 0 0 0   XYZ
    dof rx ry rz
    limits (-20.0 45.0)
           (-30.0 30.0)
           (-30.0 30.0)
  end
  begin
     id 17 
     name lclavicle
     direction 0.894044 0.44508 -0.0508781  
     length 3.03024  
     axis 0 0 0   XYZ
    dof ry rz
    limits (-20.0 10.0)
           (0.0 20.0)
  end
  begin
     id 18 
     name lhumerus
     direction 1 -4.48961e-011 -2.39475e-018   
     length 4.4661   
     axis 180 -30 -90   XYZ
    dof rx ry rz
    limits (-60.0 90.0)
           (-90.0 90.0)
           (-90.0 90.0)
  end
  begin
     id 19
     name lradius
     direction 1 -4.48961e-011 9.29328e-028   
     length 3.41414   
     axis 180 -30 -90   XYZ
    dof rx
    limits (-10.0 170.0)
  end
  begin
     id 20
     name lwrist
     direction 1 -4.48985e-011 1.53461e-026   
     length 1.70707   
     axis -1.09697e-014 90 90   XYZ
    dof ry
    limits (-180.0 0.0)
 end
  begin
     id 21 
     name lhand
     direction 1 -4.48966e-011 3.06923e-026   
     length 0.328298   
     axis -1.95843e-014 90 90   XYZ
    dof rx rz
    limits (-90.0 90.0)
           (-45.0 45.0)
  end
  begin
     id 22 
     name lfingers
     direction 1 -4.48893e-011 6.13845e-026   
     length 0.264682   
     axis -3.91686e-014 90 90   XYZ
    dof rx
    limits (0.0 90.0)
  end
  begin
     id 23
     name lthumb
     direction 0.707107 -6.34876e-011 0.707107   
     length 0.380032   
     axis -90 45 2.85299e-015   XYZ
    dof rx rz
    limits (-45.0 45.0)
           (-45.0 45.0)
  end
  begin
     id 24 
     name rclavicle
     direction -0.936955 0.347862 -0.0332887   
     length 3.26927  
     axis 0 0 0   XYZ 
    dof ry rz
    limits (-10.0 20.0)
           (-20.0 0.0)
  end
  begin
     id 25 
     name rhumerus
     direction -1 -4.4896e-011 1.78637e-018  
     length 4.40431   
     axis 180 30 90   XYZ
    dof rx ry rz
    limits (-90.0 60.0)
           (-90.0 90.0)
           (-90.0 90.0)
  end
  begin
     id 26 
     name rradius
     direction -1 -4.48955e-011 9.34036e-027   
     length 3.04688   
     axis 180 30 90   XYZ
    dof rx
    limits (-10.0 170.0)
  end
  begin
     id 27 
     name rwrist
     direction -1 -4.49011e-011 1.53461e-026   
     length 1.52344   
     axis -1.09697e-014 -90 -90   XYZ
    dof ry
    limits (-180.0 0.0)
  end
  begin
     id 28
     name rhand
     direction -1 -4.48834e-011 3.06923e-026   
     length 0.500489   
     axis -1.95843e-014 -90 -90   XYZ
    dof rx rz
    limits (-90.0 90.0)
           (-45.0 45.0)
  end
  begin
     id 29
     name rfingers
     direction -1 -4.48967e-011 6.13845e-026   
     length 0.403507   
     axis -3.91686e-014 -90 -90   XYZ
    dof rx
    limits (0.0 90.0)
  end
  begin
     id 30
     name rthumb
     direction -0.707107 -6.34826e-011 0.707107   
     length 0.579358   
     axis -90 -45 -2.85299e-015   XYZ
    dof rx rz
    limits (-45.0 45.0)
           (-45.0 45.0)
  end
:hierarchy
  begin
    root lhipjoint rhipjoint lowerback
    lhipjoint lfemur
    lfemur ltibia
    ltibia lfoot
    lfoot ltoes
    rhipjoint rfemur
    rfemur rtibia
    rtibia rfoot
    rfoot rtoes
    lowerback upperback
    upperback thorax
    thorax lowerneck lclavicle rclavicle
    lowerneck upperneck
    upperneck head
    lclavicle lhumerus
    lhumerus lradius
    lradius lwrist
    lwrist lhand lthumb
    lhand lfingers
    rclavicle rhumerus
    rhumerus rradius
    rradius rwrist
    rwrist rhand rthumb
    rhand rfingers
  end

#!OML:ASF H:\IndianDance\Patient Classification 1\Patient 1\Session 1\dancer.ASF
:FULLY-SPECIFIED
:DEGREES
2555
root 32.4404 14.3586 16.9726 -12.4695 -68.215 22.9168
lowerback -0.0721422 3.24982 -7.5418
upperback -8.33747 3.71393 -1.45668
thorax -9.22257 2.24565 2.3526
lowerneck -13.0901 -9.965 -6.78333
upperneck 17.1384 -14.8125 10.9128
head 8.86089 -6.51848 2.91943
rclavicle -8.08557e-014 -1.35174e-014
rhumerus 36.5481 19.1293 -65.0606
rradius 36.7505
rwrist -62.9113
rhand -25.1988 -26.0289
rfingers 7.12502
rthumb 1.31956 -56.0046
lclavicle -8.08557e-014 -1.35174e-014
lhumerus 27.6863 -64.6689 -13.2436
lradius 122.14
lwrist -2.31804
lhand -56.5383 4.03372
lfingers 7.12502
lthumb -28.8506 31.8231
rfemur -18.2537 160.026 24.264
rtibia 66.0997
rfoot -36.894 -48.5649
rtoes 61.8064
lfemur 4.67537 4.84731 -28.2144
ltibia 27.18
lfoot -20.1605 9.29105
ltoes -30.2066
2556
root 32.2475 14.3146 17.0724 -13.0973 -68.6512 24.0455
lowerback -0.253328 3.1786 -7.87937
upperback -8.52803 3.59736 -1.45105
thorax -9.34926 2.21745 2.5568
lowerneck -13.2993 -9.81415 -6.65887
upperneck 17.0909 -14.5789 10.796
head 8.84058 -6.40423 2.88728
rclavicle 1.75924e-014 1.59028e-015
rhumerus 36.6315 20.3285 -63.5843
rradius 38.7584
rwrist -64.0564
rhand -26.413 -27.1089
rfingers 7.12502
rthumb 0.146889 -57.0886
lclavicle 1.75924e-014 1.59028e-015
lhumerus 26.9174 -64.6621 -12.3456
lradius 121.887
lwrist -1.94595
lhand -56.2302 4.16532
lfingers 7.12502
lthumb -28.5562 32.0045
rfemur -16.5463 160.087 24.5264
rtibia 66.0098
rfoot -34.6971 -47.4165
rtoes 61.965
lfemur 5.92986 5.04762 -28.7463
ltibia 25.6246
lfoot -19.5862 9.7765
ltoes -30.3825
2557
root 32.0482 14.2723 17.171 -13.399 -69.0619 24.8814
lowerback -0.565937 3.0914 -8.14188
upperback -8.70958 3.47857 -1.41785
thorax -9.38215 2.18192 2.75723
lowerneck -13.5007 -9.66559 -6.50724
upperneck 17.0037 -14.3531 10.6925
head 8.80585 -6.29231 2.85481
rclavicle -8.18993e-014 1.07344e-014
rhumerus 36.6759 21.4507 -62.1151
rradius 40.8588
rwrist -64.9935
rhand -27.6844 -28.0796
rfingers 7.12502
rthumb -1.08112 -58.0566
lclavicle -8.18993e-014 1.07344e-014
lhumerus 26.1117 -64.6239 -11.3121
lradius 121.579
lwrist -1.38116
lhand -55.8303 4.06215
lfingers 7.12502
lthumb -28.1741 31.9649
rfemur -14.3899 160.148 25.0126
rtibia 65.3958
rfoot -32.1775 -45.8511
rtoes 62.1526
lfemur 6.9631 5.20611 -29.137
ltibia 24.3776
lfoot -18.9435 10.1196
ltoes -30.5565
2558
root 31.8433 14.2317 17.2681 -13.3942 -69.4587 25.4043
lowerback -0.974582 3.00415 -8.31808
upperback -8.88098 3.37629 -1.3646
thorax -9.34158 2.14695 2.93543
lowerneck -13.6358 -9.52579 -6.32753
upperneck 16.8603 -14.1457 10.602
head 8.74147 -6.19076 2.82292
rclavicle 7.14631e-014 4.37326e-015
rhumerus 36.6286 22.4934 -60.6663
rradius 43.0463
rwrist -65.7092
rhand -28.9196 -28.946
rfingers 7.12502
rthumb -2.27407 -58.9136
lclavicle 7.14631e-014 4.37326e-015
lhumerus 25.3435 -64.5742 -10.2079
lradius 121.217
lwrist -0.611384
lhand -55.3154 3.70231
lfingers 7.12502
lthumb -27.6818 31.6852
rfemur -11.8691 160.206 25.6989
rtibia 64.2612
rfoot -29.5842 -43.8922
rtoes 62.3623
lfemur 7.75765 5.35353 -29.3542
ltibia 23.5595
lfoot -18.272 10.2149
ltoes -30.8403
2559
root 31.6334 14.1924 17.3637 -13.1603 -69.8427 25.6444
lowerback -1.40391 2.90476 -8.39834
upperback -9.02152 3.26968 -1.2845
thorax -9.24605 2.10199 3.09156
lowerneck -13.7998 -9.38456 -6.15559
upperneck 16.7147 -13.9363 10.5231
head 8.68368 -6.08647 2.79492
rclavicle 2.70347e-014 -8.34896e-015
rhumerus 36.5319 23.5166 -59.2356
rradius 45.3219
rwrist -66.2283
rhand -30.0628 -29.7066
rfingers 7.12502
rthumb -3.37809 -59.6596
lclavicle 2.70347e-014 -8.34896e-015
lhumerus 24.4536 -64.507 -8.91891
lradius 120.799
lwrist 0.316264
lhand -54.7022 3.24517
lfingers 7.12502
lthumb -27.0953 31.3208
rfemur -9.09957 160.243 26.534
rtibia 62.6414
rfoot -27.1947 -41.5615
rtoes 62.5671
lfemur 8.30024 5.5221 -29.3873
ltibia 23.293
lfoot -17.5782 10.0064
ltoes -31.2436
